<svg id="Layer_1" data-name="Layer 1" xmlns="http://www.w3.org/2000/svg" viewBox="0 0 1917.79 1078.76"><defs><style>.cls-1{fill:#1a3156;}.cls-2,.cls-5,.cls-6{fill:#2b4973;}.cls-3{fill:#4c6d9b;}.cls-4{fill:#f0f2f5;}.cls-5{opacity:0.5;}.cls-6{opacity:0.34;}.cls-7{fill:none;}</style></defs><title>SVG copy</title><g id="Path_42" data-name="Path 42"><rect class="cls-1" x="-1.1" y="-0.63" width="1920" height="1080"/></g><path id="Path_33" data-name="Path 33" class="cls-2" d="M1204.42,760.58,1216,745.75a.93.93,0,0,1,.73-.36h.48a.94.94,0,0,0,.93-.94v-2.77a.93.93,0,0,0-.93-.93h-2.08a.92.92,0,0,1-.93-.93v-2.77a.94.94,0,0,0-.94-.93h-2.07a.94.94,0,0,1-.94-.93v-2.77a.93.93,0,0,0-.93-.93h0a1,1,0,0,1-.9-.71,11.38,11.38,0,0,0-7.6-8.22,1,1,0,0,1-.72-.89l-.63-47.94a.93.93,0,0,0-.93-.92h-.2a.93.93,0,0,0-.93.92l-.63,47.94a1,1,0,0,1-.72.89,11.38,11.38,0,0,0-7.6,8.22.93.93,0,0,1-.9.71h0a.93.93,0,0,0-.93.93v2.77a.93.93,0,0,1-.93.93h-2.08a.93.93,0,0,0-.93.93v2.77a.93.93,0,0,1-.94.93h-2.08a.93.93,0,0,0-.93.93v2.77a.94.94,0,0,0,.93.94h.48a.93.93,0,0,1,.73.36l11.56,14.83a1,1,0,0,1,.2.58v4.3h.86L1191.09,905a.94.94,0,0,0,.94.94h12.77a.92.92,0,0,0,.93-.94l-2.37-139.56h.86v-4.31A1,1,0,0,1,1204.42,760.58Z"/><polygon class="cls-2" points="1908.24 851.67 1908.24 803.49 1878.65 797.99 1878.22 797.91 1869.14 803.49 1869.14 834.2 1856.06 832.43 1843.22 830.69 1833.2 834.2 1833.2 803.28 1813.04 803.28 1813.04 819.41 1802.95 819.41 1802.95 860.39 1801.25 860.42 1776.32 860.85 1757.73 861.18 1744.49 861.41 1744.49 819.41 1710.67 819.41 1710.67 806.85 1691.23 803.28 1671.58 806.85 1671.58 871.66 1634.95 871.66 1634.95 853.01 1607.4 853.01 1607.4 811.35 1592.61 807.32 1579.84 811.35 1579.84 825.07 1576.49 826.13 1576.49 871.66 1572.45 871.66 1572.45 844.95 1568.24 841.58 1563.7 837.95 1558.83 834.05 1558.62 833.88 1558.4 834.05 1544.23 844.95 1544.23 871.66 1507.94 871.66 1507.94 861.75 1460.7 861.75 1460.7 811.35 1458.69 811.35 1458.69 803.1 1454.78 803.1 1454.78 811.35 1452.94 811.35 1452.94 805.75 1451.23 805.75 1451.23 811.35 1431.48 811.35 1431.48 855.87 1356.74 855.87 1356.74 822.78 1322.1 822.78 1322.1 844.61 1312.59 844.61 1312.59 808.6 1290.15 804.42 1283.37 808.6 1283.37 830.81 1269.35 830.81 1269.35 805.42 1250.15 801.09 1214.86 805.42 1214.86 835.86 1208.66 833.91 1186.12 836.97 1186.12 807.9 1160.73 807.9 1160.73 799.85 1123.58 792.41 1090.76 799.85 1090.76 830.81 1073.42 830.81 1073.42 846.29 1068.09 846.29 1068.09 799.23 1043.94 799.23 1043.94 807.9 1014.25 807.9 1014.25 841.34 946.8 841.34 946.8 863.08 939.29 863.08 939.29 784.8 918.88 779.77 889.01 784.8 889.01 845.14 876.71 845.14 876.71 818.56 849.79 811.92 812.12 818.26 812.12 786.36 779.14 780.31 745.78 786.36 745.78 843.66 724.56 843.66 724.56 845.23 720.34 845.23 720.34 825.36 695.21 825.36 695.21 808.74 682.65 805.9 659.55 808.74 659.55 859.14 655.5 857.86 649.83 859.87 649.83 795.05 633.22 795.05 633.22 789.78 608.9 784.92 587.43 789.78 587.43 810.04 576.08 810.04 576.08 820.17 559.35 820.17 559.35 792.56 543.55 792.56 543.55 796.26 524.43 798.24 524.43 820.12 504 820.12 504 874.24 495.48 874.24 495.48 838.75 482.13 835.47 462.58 838.75 462.58 871.27 438.28 871.27 438.28 808.58 420.66 804.24 396.01 808.39 396.01 771.42 374.43 767.47 352.6 771.42 352.6 809.53 338.71 809.53 338.71 927.84 338.71 1030.25 338.71 1079.37 1918.9 1079.37 1918.9 1014.03 1918.9 927.84 1918.9 851.67 1908.24 851.67"/><polygon class="cls-3" points="1908.24 820.4 1896.8 820.55 1896.8 805.97 1878.65 797.99 1856.06 788.06 1856.06 914.93 1847.64 914.93 1847.64 844.79 1822.74 837.99 1802.95 844.25 1801.25 844.79 1801.25 867.89 1795.59 869.67 1795.59 906.37 1768.97 906.37 1768.97 870.17 1757.73 861.18 1745.95 851.76 1745.94 851.76 1745.67 851.54 1745.49 851.68 1744.49 852.45 1721.44 870.17 1721.44 907.96 1703.89 907.96 1703.89 881.49 1698.03 881.49 1698.03 856.35 1696.79 856.07 1696.78 856.07 1677.67 851.82 1671.58 853.85 1664.08 856.35 1664.08 874.45 1633.53 874.45 1633.53 959.01 1616.2 959.01 1616.2 850.49 1607.4 848.86 1576.49 843.11 1568.24 841.58 1565.65 841.1 1563.7 842.3 1550.38 850.49 1550.38 915.18 1504.44 915.18 1504.44 820.21 1455.91 820.21 1455.91 847.37 1438.93 847.37 1438.93 927.57 1424.61 927.57 1424.61 820.39 1399.72 813.6 1378.23 820.39 1378.23 870.08 1372.57 871.86 1372.57 865.25 1372.25 865.25 1372.25 959.01 1226.84 959.01 1226.84 870.75 1157.58 870.75 1157.58 839.53 1137.22 835 1123.63 839.53 1123.63 857.63 1093.08 857.63 1093.08 905.15 1075.75 905.15 1075.75 824.04 1068.1 822.62 1032.87 816.07 1025.2 814.64 1014.26 821.37 1009.93 824.04 1009.93 923.92 989.08 923.92 989.08 854.86 984.06 854.86 984.06 849.84 977.91 849.84 977.91 854.86 955.14 854.86 955.14 899.02 940.76 899.02 940.76 870.31 934.67 870.31 934.67 899.02 864.71 899.02 864.71 867.66 831.99 861.65 798.89 867.66 798.89 959.01 793.58 959.01 793.58 840.82 768.36 841.15 768.36 826.57 745.78 816.64 727.62 808.66 727.62 935.53 719.2 935.53 719.2 865.39 698.41 859.71 694.3 858.59 672.81 865.39 672.81 888.49 667.15 890.27 667.15 926.97 640.53 926.97 640.53 890.77 617.23 872.14 593 890.77 593 928.56 575.44 928.56 575.44 902.09 569.59 902.09 569.59 876.95 549.23 872.42 535.64 876.95 535.64 895.05 505.09 895.05 505.09 946.43 494.9 943.91 491.15 945.23 487.76 946.43 487.76 820.97 438.28 811.78 437.21 811.58 421.94 820.97 421.94 935.78 376 935.78 376 820.62 327.46 820.62 327.46 847.78 310.49 847.78 310.49 948.17 296.17 948.17 296.17 840.99 271.28 834.2 249.79 840.99 249.79 890.68 244.13 892.46 244.13 885.85 187.18 885.85 187.18 851.14 154.47 845.13 121.37 851.14 121.37 888.57 103.1 873.96 78.87 892.59 78.87 911.71 65.42 911.71 65.42 826.85 56.13 826.85 56.13 802.92 51.81 805.41 51.81 826.85 46.5 826.85 46.5 802.92 42.18 805.49 42.18 826.85 -1.1 826.85 -1.1 959.01 -1.1 993.15 -1.1 1079.37 1918.9 1079.37 1918.9 1009.65 1918.9 959.01 1918.9 820.26 1908.24 820.4"/><path class="cls-4" d="M1915.46,833.79l-7.22,1.21-31.71,5.34V982.73h-16V931.34l-35.09-8.65L1776.32,931V857.33L1746,851.76h0l-.45-.08-1-.19-11.15-2-36.55,6.62h0l-6.93,1.26v60.18l-20.72,1.14c-.39,8.23-.72,15.09-1,21.67h-22.88V893.7h-28.46c-.2,4.17-.38,8.13-.56,11.92s-.36,7.68-.53,11.27h-27.24v-57h-2.34V850.5h-2.64v9.34H1563.7V834.05h-33.11c-1.53-3.31-4-8.38-4-8.38h-3.89v71.8h-13.34V870.05l-1.41-.24-3.5-.58-8.8-1.47V835.48l-2.13.09v35l-14.62-7.45s-21,7-23.59,8.29v68.8h-19v15.56h-14.8V866.88h-24.92V852.45a59.37,59.37,0,0,0-18.39-8.05,93,93,0,0,0-21.49-3.08,72.3,72.3,0,0,0-24.81,3.28,38.05,38.05,0,0,0-9.83,4.86c-.74.52-1.44,1.06-2.1,1.63l-12.25.23-9.52.17-.1,9.81H1292V836.05l-2.33,0V861.3h-17v71.39l-9.73.27-.39-9.71H1253V898h-15v34.9h-3.24V901.2h-15v22h-30.2V894.63l-22.06-12.81V855.08l-2.63.08v26.66h-14.24l-17.87,29.65s-.22,23.66-.22,35.18h-19.1V887.81l-13-1.51V814.67l-9.2-6.42v-19.1c-8.38-3.38-13.39-7.62-23.15-11.55V749.41l-2.91,0V777.6c-8,5-16.56,7.89-22.37,11.55v19.1l-10,6.42V962.35h-10.5l.15-26.66h-13V922.75H984.42v51.3H965.26v-29l-5.19-13.85V857.69l-1.27-2.83-6-13.52-1.31-2.92h-3.53v-7.93H896.52v7.93h-3.87L884,857.69v85c-5.14-.27-9,.22-13.17,0-.38-7.11.33-13.85,0-20-6.16-.47-12.4.39-17.45,0-.54-5.78-1-11.87-1.48-17.3-4.21-.23-12.43,0-12.43,0V970s-19.12.08-40.6.14h-5.31c-25.6.05-52.58.06-53.71-.15-.29-5.62-.53-12.32-.79-17.41H723.72c-.54,5.81-1,12.18-1.52,17.41-6.66.44-12.31-.38-18.05,0-.62,6.1-1.17,11.42-1.72,16.82a12,12,0,0,0-3.93,0c0-33.73-.07-83.15-.09-127.13V825.35c0-36.9,0-64,0-64h-16v25.28h-40l-9-4.16V757.53H631v24.83H606v10.39H573.25V939.6H552c-.9,4.52-1.66,8.34-2.58,13H523v34.24H491.15v-66l-3.39-1.78-13.95-7.3v-29.6h-2.73v28H439.94V865.86l-1.66,0-1.69,0v47.91l-14.65-10.54-5.59-4L376,914.71l0,0v41H356.07v-27.9H304.4V914.48h-50v-33.1l-4.56-1-20.46-4.62-42.15,5.18-3.85.47v39.68l-8.07-2.55-11.3,4V884.61H130.87V874.12l-9.5-1.9-38.92-7.79-17,3.86-25.74,5.83v40.35H17.08v20.18H-1.1v144.72h1920V834.64Z"/><path class="cls-5" d="M714.85,677.07a9.35,9.35,0,0,0-7.33-7.44,9.53,9.53,0,0,0-9.5,4.57,4.63,4.63,0,0,0-2.73-5.94c-2.33-.75-5.1,1.15-5.67,3.53a6.17,6.17,0,0,0-7.43.17,6.27,6.27,0,0,0-1.77,6.87,1.44,1.44,0,1,0-2.39,1.61c-1.3-.76-3,.43-3.9,1.64a7,7,0,0,0-11.23-2.43,5,5,0,0,0-2.65-5.64c1.85-2.33,3.73-4.73,4.6-7.58s.46-6.28-1.75-8.28a4.27,4.27,0,0,0-6.87,1.18A14.28,14.28,0,0,0,652,647.56c-3.22-2.88-8.35-3.7-12-1.39s-5.66,7.76-3,11.19a2.26,2.26,0,0,0-3.68,1.39c-1-1-3.21.26-3.83,1.56-1.18-2.9-4.74-4.4-7.79-3.72A9.79,9.79,0,0,0,615,662.7a20,20,0,0,0-.68,10,3,3,0,0,0-5.42,2.35,2.4,2.4,0,0,0-2.53-1.7c-1.1.13-2.71,1.19-2.73,2.3-.15-2.74-3-4.8-5.71-4.81s-5.27,1.57-7.17,3.54a72.33,72.33,0,0,0-5,6.54c-1.51,2-2.81,4.71-5.09,5.19l-.72.09c3.67,2.32,16.78,2.48,21,1.58a18.24,18.24,0,0,0,11.18-.17,3.57,3.57,0,0,0,4.67-.17,20.17,20.17,0,0,0,12.62-.39c15.82,3,39,5.43,54.53,1.19a6.78,6.78,0,0,0,5.87,1.28c.91-.24,1.77-.66,2.7-.81a21.28,21.28,0,0,1,3.74.1,3.39,3.39,0,0,0,3.15-1.47,9.56,9.56,0,0,0,12.59-1.64C714.43,684.26,715.35,680.06,714.85,677.07Z"/><path class="cls-6" d="M1279.56,56.46a6.23,6.23,0,0,0-4.63-.7,20.51,20.51,0,0,0-10.81,5.16,4.81,4.81,0,0,0-3.43-3.67c-1.71-.45-3.67-.31-4.8,1,2.17-3.24,4.39-6.59,5.11-10.42s-.42-8.3-3.74-10.34-7.39-1.17-10.94.09c-11.07,3.92-20,12.27-26,22.35a9.37,9.37,0,0,0-6.5-9.74c-4.07-1.18-9.73.57-11.57,4.39a29,29,0,0,0-19.2-.43c-4.9,1.62-9.37,4.54-14.44,5.44-4.56.81-9.23-.09-13.87-.15-11-.15-20.66,8-31.7,8h27.38c6.36.48,12.71,1,18.78,2.73,19.35,5.44,40.62,4.8,59.89-.95a25.84,25.84,0,0,0,24.63,1.62l16.37,1.71a15.1,15.1,0,0,0,5.92-.16,5.21,5.21,0,0,0,3.88-4.06,3.5,3.5,0,0,0-1.25-2.91,10.41,10.41,0,0,0,2.18-3.27C1281.54,60.25,1281.26,57.71,1279.56,56.46Z"/><path class="cls-2" d="M1613.62,630.86c-.42-2.71-3-4.67-5.66-5.26s-5.23.33-7.92.83c2.28-2.28,4.6-4.61,6-7.51s1.8-6.5.16-9.28-5.15-4.24-7.8-2.4a12.53,12.53,0,0,0-24.73,2.18,6.32,6.32,0,0,0-6,.56c-1.73,1.16-2.29,3.26-2.22,5.34a14.64,14.64,0,0,0-24,14.94,4.48,4.48,0,0,0-7.94.37c-1.29-.82-2.82-.69-3.53.67a7,7,0,0,0-6.18-1.89,25.18,25.18,0,0,0-6.36,2.12c-13.09,5.52-27.41,6.09-41.62,6.09h35l21.62,2.71c2.39.3,5.13.5,6.92-1.11,1.33.94,4,1,5-.28a45.14,45.14,0,0,0,7.13,1.18c5.51.61,11.34,1.17,16.4-1.11,5.85,4.33,14.88,4.21,21.12.48a11.2,11.2,0,0,0,5.11.81l5.12-.53c2.92-.3,6.16,1.18,9,.36a6.42,6.42,0,0,0,3.44-2.51h0A9.33,9.33,0,0,0,1613.62,630.86Z"/><path class="cls-6" d="M1839.12,435.23c-3-1-5.58-2.09-8,0,.53-3.42,1-7,0-10.29s-3.71-6.35-7.15-6.63a6.4,6.4,0,0,0-6.09,3.77,4.84,4.84,0,0,0-2.38-3.17,4.9,4.9,0,0,0-6,1.45,4.19,4.19,0,0,0-2.28-5.19c-2-.77-2.91-.85-3.7,1.09-6.1-9.61-19.43-13.87-30-9.56s-17,16.79-14.66,27.93a5.54,5.54,0,0,0-6.35-4c-2.71.6-5,3.7-4.36,6.41-.88-2.15-3.76-2.77-6-2.1s-4,2.23-6.06,3.37a13.84,13.84,0,0,1-2.64,1.18c9.21,0,14.08,1.67,20.34,1.1a7.14,7.14,0,0,0,5.47.92,10.86,10.86,0,0,1,3.34-.68,8.47,8.47,0,0,1,2.91,1.2,11.8,11.8,0,0,0,11.94-.88,29.27,29.27,0,0,0,23.28-.42c1.86,1.89,5.44,1.57,7.49-.11a36.84,36.84,0,0,0,26.43-.63c4,1.67,7.49-.5,17.64-.5Z"/><path class="cls-5" d="M541.9,156.24c-4.69-2.62-9.52-5.29-14.84-6.08s-11.37-.14-14.53,4.21c-7.2-4.45-17.25-4.75-25.06-1.46-1.49-4.44-8-6.6-12.15-4.36a11.53,11.53,0,0,0-20.3-8.48,5,5,0,0,0-5.27-2c-1.93.52-2.84,1.17-3,3.16-2.76-6-7.64-11.09-13.8-13.38s-13.59-1.44-18.61,2.8-7.44,11.57-4.5,17.45a20.88,20.88,0,0,0-17.1-7.47,21.4,21.4,0,0,0-16.24,9.7,9.07,9.07,0,0,0-11.94-1.53,5.52,5.52,0,0,0-8.7-1.65,11.62,11.62,0,0,0-2.55-11.36c-2.81-3-6.19-3.64-10.13-2.58a19,19,0,0,0,.28-7c-.49-2.31-2.06-4.55-4.35-5.12s-3.6,1-3.47,3.33a19.46,19.46,0,0,0-34.44,1.94,18.9,18.9,0,0,0-.12,14.83,16.16,16.16,0,0,0-4.46-4.6c-3.37-2.2-8.45-2.32-11,.81-1.69,2.1-1.82,5.13-1,7.7a25.3,25.3,0,0,0,3.66,7.26,6.11,6.11,0,0,0-5.54-2.7,5.8,5.8,0,0,0-4.92,3.43c-2.5-1.89-6-1.5-9.09-1-11.31,1.75-22.2,5-33.41,6.3h-.05a80.48,80.48,0,0,1-9.08.56h16.87a907,907,0,0,0,93.71,1.52c10-.36,20,2.66,29.7.05a109.68,109.68,0,0,0,71.47-.39A138.8,138.8,0,0,0,483.83,163c9.9-1,19.92,2.12,28.72-2.53a20.07,20.07,0,0,0,16.71-.78c3.42,2.22,11.77-.69,28.06-.69C551.57,157.33,547.11,159.16,541.9,156.24Z"/><path class="cls-5" d="M229.53,636.08a9.4,9.4,0,0,0-4.48-8.14c-2.78-1.66-6.91-1.31-9.73.3a6.32,6.32,0,0,0-2.41-6.74c-2.1-1.46-4.93-.76-7,.75a31.55,31.55,0,0,0-9-6.35,14.45,14.45,0,0,0-10.76-.58,15.12,15.12,0,0,0-7.62,7.42,48.72,48.72,0,0,0-3.47,10.79c-1.11-1.8-4.13-1.81-5.91-.66a16.53,16.53,0,0,0-8.42-5.73,10.2,10.2,0,0,0-6.46,0c-2,.8-3.67,2.29-3.78,4.48a39.87,39.87,0,0,0-5.3-9.51c-2.31-2.8-5.59-5-9.23-5.23a8.07,8.07,0,0,0-8,5.93,6.61,6.61,0,0,0-7.33-2.59c0,.37-.61.53-.62.9a12.84,12.84,0,0,0-14.85-4c-5.09,2.15-7.89,8.33-7,13.79a7.48,7.48,0,0,0-9.1-.78c-2.72,1.84-4.46,5.68-3.21,8.73a15.56,15.56,0,0,0-11.93-1.62c-5.33,1.46-8.92,4.39-14.45,4.39h6c10.23,0,19.45,4.5,23.67,4.79a20.61,20.61,0,0,0,12.22-2.56,75,75,0,0,0,44.53,1.72,57.19,57.19,0,0,0,39.95-1.46c3.23,3.51,9.52,3.65,13.17.59a17,17,0,0,0,15.16-.56,36,36,0,0,0,10.86.46c3.82-.43,3.45-3,14-3h8.31C235.21,641.61,235.21,635,229.53,636.08Z"/><rect class="cls-7" x="-1.1" y="-0.63" width="1920" height="1080"/></svg>