<svg width="142" height="26" viewBox="0 0 142 26" fill="none" xmlns="http://www.w3.org/2000/svg">
<path d="M5.06 25.51L8.27 15.97L0.53 10.78H10.01L13.4 0.549998L16.85 10.78H26.27L18.53 15.97L21.8 25.51L13.4 19.42L5.06 25.51ZM33.8588 25.51L37.0688 15.97L29.3288 10.78H38.8088L42.1988 0.549998L45.6488 10.78H55.0688L47.3288 15.97L50.5988 25.51L42.1988 19.42L33.8588 25.51ZM62.6577 25.51L65.8677 15.97L58.1277 10.78H67.6077L70.9977 0.549998L74.4477 10.78H83.8677L76.1277 15.97L79.3977 25.51L70.9977 19.42L62.6577 25.51ZM91.4565 25.51L94.6665 15.97L86.9265 10.78H96.4065L99.7965 0.549998L103.246 10.78H112.666L104.926 15.97L108.196 25.51L99.7965 19.42L91.4565 25.51ZM120.255 25.51L123.465 15.97L115.725 10.78H125.205L128.595 0.549998L132.045 10.78H141.465L133.725 15.97L136.995 25.51L128.595 19.42L120.255 25.51Z" fill="#DEBA93"/>
</svg>
